<svg xmlns="http://www.w3.org/2000/svg" viewBox="0 0 32 32" fill="none">
  <!-- Dark background -->
  <rect width="32" height="32" rx="6" fill="#080C14"/>
  <!-- S letterform in accent teal -->
  <path d="M10 11.5C10 9.57 11.57 8 13.5 8H19C20.1 8 21 8.9 21 10C21 11.1 20.1 12 19 12H13.5C13.22 12 13 12.22 13 12.5C13 12.78 13.22 13 13.5 13H18.5C20.43 13 22 14.57 22 16.5C22 18.43 20.43 20 18.5 20H13C11.9 20 11 19.1 11 18C11 16.9 11.9 16 13 16H18.5C18.78 16 19 15.78 19 15.5C19 15.22 18.78 15 18.5 15H13.5C11.57 15 10 13.43 10 11.5Z" fill="#00D4AA"/>
  <!-- Accent dot -->
  <circle cx="16" cy="24.5" r="1.5" fill="#00D4AA" opacity="0.7"/>
</svg>
